<svg xmlns="http://www.w3.org/2000/svg" xmlns:xlink="http://www.w3.org/1999/xlink" width="50" zoomAndPan="magnify" viewBox="0 0 37.5 37.499999" height="50" preserveAspectRatio="xMidYMid meet" version="1.0"><defs><clipPath id="665463ef3b"><path d="M 7.316406 5.585938 L 29.519531 5.585938 L 29.519531 31.492188 L 7.316406 31.492188 Z M 7.316406 5.585938 " clip-rule="nonzero"/></clipPath></defs><g clip-path="url(#665463ef3b)"><path fill="#ffffff" d="M 7.316406 28.820312 C 7.316406 29.164062 7.378906 29.492188 7.511719 29.808594 C 7.640625 30.125 7.828125 30.40625 8.070312 30.648438 C 8.3125 30.890625 8.59375 31.074219 8.90625 31.207031 C 9.222656 31.335938 9.554688 31.402344 9.894531 31.402344 L 21.9375 31.402344 C 22.28125 31.402344 22.609375 31.335938 22.925781 31.207031 C 23.242188 31.074219 23.523438 30.890625 23.761719 30.648438 C 24.003906 30.40625 24.191406 30.125 24.324219 29.808594 C 24.453125 29.492188 24.519531 29.164062 24.519531 28.820312 L 24.519531 27.960938 L 27.101562 27.960938 C 27.441406 27.960938 27.773438 27.894531 28.085938 27.765625 C 28.402344 27.632812 28.683594 27.449219 28.925781 27.207031 C 29.167969 26.964844 29.351562 26.683594 29.484375 26.367188 C 29.617188 26.050781 29.679688 25.722656 29.679688 25.382812 L 29.679688 8.175781 C 29.679688 7.835938 29.617188 7.503906 29.484375 7.1875 C 29.351562 6.871094 29.167969 6.59375 28.925781 6.351562 C 28.683594 6.109375 28.402344 5.921875 28.085938 5.792969 C 27.773438 5.660156 27.441406 5.597656 27.101562 5.597656 L 15.058594 5.597656 C 14.714844 5.597656 14.386719 5.660156 14.070312 5.792969 C 13.753906 5.921875 13.472656 6.109375 13.230469 6.351562 C 12.988281 6.59375 12.804688 6.871094 12.671875 7.1875 C 12.542969 7.503906 12.476562 7.835938 12.476562 8.175781 L 12.476562 9.035156 L 9.894531 9.035156 C 9.554688 9.035156 9.222656 9.101562 8.90625 9.234375 C 8.59375 9.363281 8.3125 9.550781 8.070312 9.792969 C 7.828125 10.035156 7.640625 10.3125 7.511719 10.628906 C 7.378906 10.945312 7.316406 11.273438 7.316406 11.617188 Z M 14.195312 8.175781 C 14.195312 7.9375 14.28125 7.734375 14.449219 7.566406 C 14.617188 7.398438 14.820312 7.316406 15.058594 7.316406 L 27.101562 7.316406 C 27.335938 7.316406 27.539062 7.398438 27.707031 7.566406 C 27.875 7.734375 27.960938 7.9375 27.960938 8.175781 L 27.960938 25.382812 C 27.960938 25.617188 27.875 25.820312 27.707031 25.988281 C 27.539062 26.15625 27.335938 26.242188 27.101562 26.242188 L 24.519531 26.242188 L 24.519531 11.617188 C 24.519531 11.273438 24.453125 10.945312 24.324219 10.628906 C 24.191406 10.3125 24.003906 10.035156 23.761719 9.792969 C 23.523438 9.550781 23.242188 9.363281 22.925781 9.234375 C 22.609375 9.101562 22.28125 9.035156 21.9375 9.035156 L 14.195312 9.035156 Z M 9.035156 11.617188 C 9.035156 11.378906 9.121094 11.175781 9.289062 11.007812 C 9.457031 10.839844 9.65625 10.757812 9.894531 10.757812 L 21.9375 10.757812 C 22.175781 10.757812 22.378906 10.839844 22.546875 11.007812 C 22.714844 11.175781 22.800781 11.378906 22.800781 11.617188 L 22.800781 28.820312 C 22.800781 29.058594 22.714844 29.261719 22.546875 29.429688 C 22.378906 29.597656 22.175781 29.683594 21.9375 29.683594 L 9.894531 29.683594 C 9.65625 29.683594 9.457031 29.597656 9.289062 29.429688 C 9.121094 29.261719 9.035156 29.058594 9.035156 28.820312 Z M 9.035156 11.617188 " fill-opacity="1" fill-rule="nonzero"/></g></svg>