<svg xmlns="http://www.w3.org/2000/svg" xmlns:xlink="http://www.w3.org/1999/xlink" width="50" zoomAndPan="magnify" viewBox="0 0 37.5 37.499999" height="50" preserveAspectRatio="xMidYMid meet" version="1.0"><path fill="#ffffff" d="M 0.34375 18.503906 C 0.34375 18.460938 0.347656 18.417969 0.351562 18.375 L 0.351562 18.371094 L 0.359375 18.320312 L 0.367188 18.253906 L 0.371094 18.25 L 0.371094 18.242188 L 0.386719 18.191406 L 0.398438 18.132812 L 0.402344 18.117188 L 0.421875 18.074219 L 0.4375 18.015625 L 0.464844 17.960938 L 0.5 17.886719 L 0.519531 17.851562 L 0.558594 17.789062 L 0.566406 17.78125 L 0.566406 17.777344 L 0.585938 17.75 L 0.636719 17.683594 L 0.640625 17.675781 L 0.664062 17.65625 L 0.726562 17.585938 L 5.914062 12.398438 C 6.417969 11.890625 7.242188 11.890625 7.746094 12.398438 C 8.253906 12.90625 8.253906 13.726562 7.746094 14.230469 L 4.773438 17.207031 L 32.234375 17.207031 L 29.257812 14.230469 C 28.753906 13.726562 28.753906 12.90625 29.257812 12.398438 C 29.765625 11.890625 30.585938 11.890625 31.09375 12.398438 L 36.28125 17.585938 L 36.34375 17.65625 L 36.367188 17.675781 L 36.371094 17.683594 L 36.417969 17.75 L 36.4375 17.777344 L 36.441406 17.78125 L 36.445312 17.789062 L 36.488281 17.851562 L 36.503906 17.886719 L 36.542969 17.960938 L 36.5625 18 L 36.566406 18.015625 L 36.585938 18.074219 L 36.605469 18.117188 L 36.609375 18.132812 L 36.621094 18.191406 L 36.632812 18.242188 L 36.636719 18.25 L 36.636719 18.253906 L 36.648438 18.320312 L 36.65625 18.371094 L 36.65625 18.375 C 36.660156 18.417969 36.660156 18.460938 36.660156 18.503906 L 36.65625 18.628906 L 36.65625 18.636719 L 36.648438 18.6875 L 36.636719 18.75 L 36.636719 18.757812 L 36.632812 18.765625 L 36.621094 18.816406 L 36.609375 18.875 L 36.605469 18.886719 L 36.585938 18.933594 L 36.566406 18.992188 L 36.5625 19.007812 L 36.542969 19.046875 L 36.503906 19.121094 L 36.488281 19.15625 L 36.445312 19.21875 L 36.441406 19.226562 L 36.4375 19.226562 L 36.417969 19.253906 L 36.371094 19.320312 L 36.367188 19.328125 L 36.34375 19.351562 L 36.28125 19.421875 L 31.09375 24.609375 C 30.585938 25.113281 29.765625 25.113281 29.257812 24.609375 C 28.753906 24.101562 28.753906 23.28125 29.257812 22.773438 L 32.234375 19.800781 L 4.773438 19.800781 L 7.746094 22.773438 C 8.253906 23.28125 8.253906 24.101562 7.746094 24.609375 C 7.242188 25.113281 6.417969 25.113281 5.914062 24.609375 L 0.726562 19.421875 L 0.664062 19.351562 L 0.640625 19.328125 L 0.636719 19.320312 L 0.585938 19.253906 L 0.566406 19.226562 L 0.558594 19.21875 L 0.519531 19.15625 L 0.5 19.121094 L 0.464844 19.046875 L 0.4375 18.992188 L 0.421875 18.933594 L 0.402344 18.886719 L 0.398438 18.875 L 0.386719 18.816406 L 0.371094 18.765625 L 0.371094 18.757812 L 0.367188 18.75 L 0.359375 18.6875 L 0.351562 18.636719 L 0.351562 18.628906 L 0.34375 18.503906 " fill-opacity="1" fill-rule="evenodd"/></svg>