<svg xmlns="http://www.w3.org/2000/svg" xmlns:xlink="http://www.w3.org/1999/xlink" width="1080" zoomAndPan="magnify" viewBox="0 0 810 809.999993" height="1080" preserveAspectRatio="xMidYMid meet" version="1.0"><defs><clipPath id="0df04b47c8"><path d="M 86.285156 127.214844 L 723.726562 127.214844 L 723.726562 233 L 86.285156 233 Z M 86.285156 127.214844 " clip-rule="nonzero"/></clipPath><clipPath id="4e3c92eb7c"><path d="M 86.285156 337 L 723.726562 337 L 723.726562 444 L 86.285156 444 Z M 86.285156 337 " clip-rule="nonzero"/></clipPath><clipPath id="2baabb0da4"><path d="M 86.285156 548 L 723.726562 548 L 723.726562 653.714844 L 86.285156 653.714844 Z M 86.285156 548 " clip-rule="nonzero"/></clipPath></defs><g clip-path="url(#0df04b47c8)"><path fill="#ffffff" d="M 671.035156 232.578125 L 138.96875 232.578125 C 109.867188 232.578125 86.285156 208.996094 86.285156 179.898438 C 86.285156 150.808594 109.867188 127.226562 138.96875 127.226562 L 671.035156 127.226562 C 700.132812 127.226562 723.714844 150.808594 723.714844 179.898438 C 723.714844 208.996094 700.132812 232.578125 671.035156 232.578125 " fill-opacity="1" fill-rule="nonzero"/></g><g clip-path="url(#4e3c92eb7c)"><path fill="#ffffff" d="M 671.035156 443.300781 L 138.96875 443.300781 C 109.867188 443.300781 86.285156 419.71875 86.285156 390.621094 C 86.285156 361.523438 109.867188 337.941406 138.96875 337.941406 L 671.035156 337.941406 C 700.132812 337.941406 723.714844 361.523438 723.714844 390.621094 C 723.714844 419.71875 700.132812 443.300781 671.035156 443.300781 " fill-opacity="1" fill-rule="nonzero"/></g><g clip-path="url(#2baabb0da4)"><path fill="#ffffff" d="M 671.035156 654.027344 L 138.96875 654.027344 C 109.867188 654.027344 86.285156 630.445312 86.285156 601.34375 C 86.285156 572.246094 109.867188 548.664062 138.96875 548.664062 L 671.035156 548.664062 C 700.132812 548.664062 723.714844 572.246094 723.714844 601.34375 C 723.714844 630.445312 700.132812 654.027344 671.035156 654.027344 " fill-opacity="1" fill-rule="nonzero"/></g></svg>