<svg xmlns="http://www.w3.org/2000/svg" xmlns:xlink="http://www.w3.org/1999/xlink" width="50" zoomAndPan="magnify" viewBox="0 0 37.5 37.499999" height="50" preserveAspectRatio="xMidYMid meet" version="1.0"><defs><clipPath id="fefec131f4"><path d="M 0 7.585938 L 8 7.585938 L 8 21 L 0 21 Z M 0 7.585938 " clip-rule="nonzero"/></clipPath><clipPath id="e849dc8bbf"><path d="M 14.117188 26.609375 L 17.425781 26.609375 L 17.425781 29.359375 L 14.117188 29.359375 Z M 14.117188 26.609375 " clip-rule="nonzero"/></clipPath><clipPath id="87b3d056df"><path d="M 27 7.585938 L 35.96875 7.585938 L 35.96875 21 L 27 21 Z M 27 7.585938 " clip-rule="nonzero"/></clipPath><clipPath id="e746231a18"><path d="M 4.191406 9.242188 L 27.351562 9.242188 L 27.351562 29.359375 L 4.191406 29.359375 Z M 4.191406 9.242188 " clip-rule="nonzero"/></clipPath><clipPath id="0e18b654f7"><path d="M 0 7.585938 L 8 7.585938 L 8 21 L 0 21 Z M 0 7.585938 " clip-rule="nonzero"/></clipPath><clipPath id="eb71eeab30"><path d="M 14.117188 26.609375 L 17.425781 26.609375 L 17.425781 29.359375 L 14.117188 29.359375 Z M 14.117188 26.609375 " clip-rule="nonzero"/></clipPath><clipPath id="646c36bace"><path d="M 27 7.585938 L 35.96875 7.585938 L 35.96875 21 L 27 21 Z M 27 7.585938 " clip-rule="nonzero"/></clipPath><clipPath id="2b4c01129d"><path d="M 4.191406 9.242188 L 27.351562 9.242188 L 27.351562 29.359375 L 4.191406 29.359375 Z M 4.191406 9.242188 " clip-rule="nonzero"/></clipPath></defs><g clip-path="url(#fefec131f4)"><path fill="#ffffff" d="M 4.199219 20.105469 L 7.152344 9.089844 C 7.183594 8.964844 7.113281 8.839844 6.992188 8.804688 L 2.472656 7.597656 C 2.347656 7.5625 2.222656 7.636719 2.191406 7.757812 L -0.757812 18.773438 C -0.796875 18.898438 -0.71875 19.023438 -0.601562 19.058594 L 3.917969 20.265625 C 4.042969 20.300781 4.167969 20.226562 4.199219 20.105469 " fill-opacity="1" fill-rule="nonzero"/></g><path fill="#ffffff" d="M 13.707031 25.035156 L 12.578125 26.164062 C 12.136719 26.625 12.152344 27.355469 12.613281 27.796875 C 13.058594 28.222656 13.765625 28.222656 14.210938 27.796875 L 15.339844 26.667969 C 15.78125 26.207031 15.765625 25.476562 15.304688 25.035156 C 14.859375 24.609375 14.152344 24.605469 13.707031 25.035156 " fill-opacity="1" fill-rule="nonzero"/><g clip-path="url(#e849dc8bbf)"><path fill="#ffffff" d="M 16.988281 28.367188 C 17.351562 28 17.34375 27.410156 16.976562 27.046875 C 16.613281 26.691406 16.035156 26.691406 15.667969 27.046875 L 14.9375 27.78125 C 14.578125 28.152344 14.589844 28.742188 14.960938 29.097656 C 15.324219 29.449219 15.898438 29.449219 16.257812 29.101562 L 16.988281 28.367188 " fill-opacity="1" fill-rule="nonzero"/></g><path fill="#ffffff" d="M 11.113281 22.910156 L 10.019531 24 C 9.476562 24.566406 9.496094 25.460938 10.058594 26.007812 C 10.605469 26.539062 11.476562 26.539062 12.023438 26.007812 L 13.117188 24.914062 C 13.660156 24.351562 13.644531 23.457031 13.082031 22.914062 C 12.53125 22.382812 11.664062 22.382812 11.113281 22.910156 " fill-opacity="1" fill-rule="nonzero"/><path fill="#ffffff" d="M 9.207031 24.109375 L 10.3125 23 C 10.753906 22.539062 10.738281 21.8125 10.28125 21.367188 C 9.832031 20.9375 9.125 20.9375 8.679688 21.367188 L 7.574219 22.472656 C 7.132812 22.933594 7.148438 23.664062 7.609375 24.105469 C 8.054688 24.535156 8.757812 24.535156 9.207031 24.105469 L 9.207031 24.109375 " fill-opacity="1" fill-rule="nonzero"/><g clip-path="url(#87b3d056df)"><path fill="#ffffff" d="M 27.695312 9.089844 L 30.648438 20.105469 C 30.683594 20.226562 30.808594 20.300781 30.933594 20.265625 L 35.445312 19.058594 C 35.570312 19.027344 35.648438 18.898438 35.609375 18.777344 C 35.609375 18.773438 35.609375 18.773438 35.609375 18.773438 L 32.660156 7.757812 C 32.628906 7.636719 32.5 7.558594 32.378906 7.59375 L 27.859375 8.804688 C 27.738281 8.835938 27.664062 8.960938 27.695312 9.085938 C 27.695312 9.085938 27.695312 9.085938 27.695312 9.089844 " fill-opacity="1" fill-rule="nonzero"/></g><path fill="#ffffff" d="M 13.449219 8.933594 C 14.859375 8.230469 16.492188 8.121094 17.984375 8.628906 C 19.300781 9.078125 20.648438 9.410156 22.023438 9.609375 C 23.769531 10.121094 25.609375 10.234375 27.40625 9.933594 L 29.9375 19.382812 C 28.828125 19.78125 27.835938 20.453125 27.054688 21.335938 L 19.597656 13.878906 C 18.238281 12.523438 16.074219 12.40625 14.578125 13.609375 C 13.554688 14.429688 12.421875 15.105469 11.210938 15.621094 C 10.628906 15.867188 9.953125 15.59375 9.703125 15.011719 C 9.585938 14.730469 9.582031 14.414062 9.699219 14.128906 C 10.515625 12.121094 11.800781 10.339844 13.449219 8.933594 " fill-opacity="1" fill-rule="nonzero"/><g clip-path="url(#e746231a18)"><path fill="#ffffff" d="M 9.234375 13.9375 C 8.886719 14.785156 9.292969 15.746094 10.140625 16.09375 C 10.546875 16.257812 11.003906 16.253906 11.40625 16.082031 C 12.660156 15.550781 13.832031 14.847656 14.894531 14 C 16.191406 12.957031 18.066406 13.058594 19.242188 14.234375 L 26.910156 21.90625 C 27.390625 22.394531 27.386719 23.183594 26.898438 23.660156 C 26.410156 24.136719 25.636719 24.136719 25.152344 23.660156 L 21.253906 19.757812 C 21.152344 19.664062 20.988281 19.675781 20.898438 19.777344 C 20.8125 19.871094 20.8125 20.019531 20.898438 20.113281 L 24.621094 23.839844 C 25.09375 24.332031 25.078125 25.117188 24.582031 25.59375 C 24.101562 26.050781 23.34375 26.050781 22.867188 25.59375 L 19.613281 22.339844 C 19.507812 22.25 19.351562 22.257812 19.257812 22.359375 C 19.171875 22.453125 19.171875 22.601562 19.257812 22.695312 L 22.117188 25.558594 C 22.605469 26.042969 22.605469 26.832031 22.117188 27.316406 C 21.632812 27.800781 20.847656 27.800781 20.359375 27.3125 L 17.820312 24.769531 C 17.714844 24.679688 17.558594 24.6875 17.464844 24.789062 C 17.378906 24.882812 17.378906 25.03125 17.464844 25.125 L 19.570312 27.230469 C 20.050781 27.71875 20.046875 28.507812 19.5625 28.988281 C 19.074219 29.46875 18.292969 29.46875 17.8125 28.988281 L 17.441406 28.617188 C 17.945312 28.003906 17.851562 27.097656 17.238281 26.59375 C 16.925781 26.339844 16.519531 26.230469 16.121094 26.289062 C 16.363281 25.402344 15.84375 24.496094 14.957031 24.253906 C 14.644531 24.164062 14.308594 24.175781 14 24.277344 C 14.203125 23.238281 13.523438 22.230469 12.484375 22.027344 C 12.027344 21.941406 11.550781 22.015625 11.152344 22.253906 C 11.191406 21.339844 10.480469 20.566406 9.566406 20.527344 C 9.105469 20.507812 8.652344 20.683594 8.324219 21.011719 L 7.84375 21.496094 C 7.261719 20.367188 6.152344 19.605469 4.894531 19.460938 L 7.46875 9.839844 C 9.03125 10.105469 10.632812 9.984375 12.128906 9.484375 C 10.890625 10.769531 9.90625 12.285156 9.234375 13.9375 " fill-opacity="1" fill-rule="nonzero"/></g><g clip-path="url(#0e18b654f7)"><path fill="#ffffff" d="M 4.199219 20.105469 L 7.152344 9.089844 C 7.183594 8.964844 7.113281 8.839844 6.992188 8.804688 L 2.472656 7.597656 C 2.347656 7.5625 2.222656 7.636719 2.191406 7.757812 L -0.757812 18.773438 C -0.796875 18.898438 -0.71875 19.023438 -0.601562 19.058594 L 3.917969 20.265625 C 4.042969 20.300781 4.167969 20.226562 4.199219 20.105469 " fill-opacity="1" fill-rule="nonzero"/></g><path fill="#ffffff" d="M 13.707031 25.035156 L 12.578125 26.164062 C 12.136719 26.625 12.152344 27.355469 12.613281 27.796875 C 13.058594 28.222656 13.765625 28.222656 14.210938 27.796875 L 15.339844 26.667969 C 15.78125 26.207031 15.765625 25.476562 15.304688 25.035156 C 14.859375 24.609375 14.152344 24.605469 13.707031 25.035156 " fill-opacity="1" fill-rule="nonzero"/><g clip-path="url(#eb71eeab30)"><path fill="#ffffff" d="M 16.988281 28.367188 C 17.351562 28 17.34375 27.410156 16.976562 27.046875 C 16.613281 26.691406 16.035156 26.691406 15.667969 27.046875 L 14.9375 27.78125 C 14.578125 28.152344 14.589844 28.742188 14.960938 29.097656 C 15.324219 29.449219 15.898438 29.449219 16.257812 29.101562 L 16.988281 28.367188 " fill-opacity="1" fill-rule="nonzero"/></g><path fill="#ffffff" d="M 11.113281 22.910156 L 10.019531 24 C 9.476562 24.566406 9.496094 25.460938 10.058594 26.007812 C 10.605469 26.539062 11.476562 26.539062 12.023438 26.007812 L 13.117188 24.914062 C 13.660156 24.351562 13.644531 23.457031 13.082031 22.914062 C 12.53125 22.382812 11.664062 22.382812 11.113281 22.910156 " fill-opacity="1" fill-rule="nonzero"/><path fill="#ffffff" d="M 9.207031 24.109375 L 10.3125 23 C 10.753906 22.539062 10.738281 21.8125 10.28125 21.367188 C 9.832031 20.9375 9.125 20.9375 8.679688 21.367188 L 7.574219 22.472656 C 7.132812 22.933594 7.148438 23.664062 7.609375 24.105469 C 8.054688 24.535156 8.757812 24.535156 9.207031 24.105469 L 9.207031 24.109375 " fill-opacity="1" fill-rule="nonzero"/><g clip-path="url(#646c36bace)"><path fill="#ffffff" d="M 27.695312 9.089844 L 30.648438 20.105469 C 30.683594 20.226562 30.808594 20.300781 30.933594 20.265625 L 35.445312 19.058594 C 35.570312 19.027344 35.648438 18.898438 35.609375 18.777344 C 35.609375 18.773438 35.609375 18.773438 35.609375 18.773438 L 32.660156 7.757812 C 32.628906 7.636719 32.5 7.558594 32.378906 7.59375 L 27.859375 8.804688 C 27.738281 8.835938 27.664062 8.960938 27.695312 9.085938 C 27.695312 9.085938 27.695312 9.085938 27.695312 9.089844 " fill-opacity="1" fill-rule="nonzero"/></g><path fill="#ffffff" d="M 13.449219 8.933594 C 14.859375 8.230469 16.492188 8.121094 17.984375 8.628906 C 19.300781 9.078125 20.648438 9.410156 22.023438 9.609375 C 23.769531 10.121094 25.609375 10.234375 27.40625 9.933594 L 29.9375 19.382812 C 28.828125 19.78125 27.835938 20.453125 27.054688 21.335938 L 19.597656 13.878906 C 18.238281 12.523438 16.074219 12.40625 14.578125 13.609375 C 13.554688 14.429688 12.421875 15.105469 11.210938 15.621094 C 10.628906 15.867188 9.953125 15.59375 9.703125 15.011719 C 9.585938 14.730469 9.582031 14.414062 9.699219 14.128906 C 10.515625 12.121094 11.800781 10.339844 13.449219 8.933594 " fill-opacity="1" fill-rule="nonzero"/><g clip-path="url(#2b4c01129d)"><path fill="#ffffff" d="M 9.234375 13.9375 C 8.886719 14.785156 9.292969 15.746094 10.140625 16.09375 C 10.546875 16.257812 11.003906 16.253906 11.40625 16.082031 C 12.660156 15.550781 13.832031 14.847656 14.894531 14 C 16.191406 12.957031 18.066406 13.058594 19.242188 14.234375 L 26.910156 21.90625 C 27.390625 22.394531 27.386719 23.183594 26.898438 23.660156 C 26.410156 24.136719 25.636719 24.136719 25.152344 23.660156 L 21.253906 19.757812 C 21.152344 19.664062 20.988281 19.675781 20.898438 19.777344 C 20.8125 19.871094 20.8125 20.019531 20.898438 20.113281 L 24.621094 23.839844 C 25.09375 24.332031 25.078125 25.117188 24.582031 25.59375 C 24.101562 26.050781 23.34375 26.050781 22.867188 25.59375 L 19.613281 22.339844 C 19.507812 22.25 19.351562 22.257812 19.257812 22.359375 C 19.171875 22.453125 19.171875 22.601562 19.257812 22.695312 L 22.117188 25.558594 C 22.605469 26.042969 22.605469 26.832031 22.117188 27.316406 C 21.632812 27.800781 20.847656 27.800781 20.359375 27.3125 L 17.820312 24.769531 C 17.714844 24.679688 17.558594 24.6875 17.464844 24.789062 C 17.378906 24.882812 17.378906 25.03125 17.464844 25.125 L 19.570312 27.230469 C 20.050781 27.71875 20.046875 28.507812 19.5625 28.988281 C 19.074219 29.46875 18.292969 29.46875 17.8125 28.988281 L 17.441406 28.617188 C 17.945312 28.003906 17.851562 27.097656 17.238281 26.59375 C 16.925781 26.339844 16.519531 26.230469 16.121094 26.289062 C 16.363281 25.402344 15.84375 24.496094 14.957031 24.253906 C 14.644531 24.164062 14.308594 24.175781 14 24.277344 C 14.203125 23.238281 13.523438 22.230469 12.484375 22.027344 C 12.027344 21.941406 11.550781 22.015625 11.152344 22.253906 C 11.191406 21.339844 10.480469 20.566406 9.566406 20.527344 C 9.105469 20.507812 8.652344 20.683594 8.324219 21.011719 L 7.84375 21.496094 C 7.261719 20.367188 6.152344 19.605469 4.894531 19.460938 L 7.46875 9.839844 C 9.03125 10.105469 10.632812 9.984375 12.128906 9.484375 C 10.890625 10.769531 9.90625 12.285156 9.234375 13.9375 " fill-opacity="1" fill-rule="nonzero"/></g></svg>