<svg xmlns="http://www.w3.org/2000/svg" xmlns:xlink="http://www.w3.org/1999/xlink" width="50" zoomAndPan="magnify" viewBox="0 0 37.5 37.499999" height="50" preserveAspectRatio="xMidYMid meet" version="1.0"><defs><clipPath id="3595f75fda"><path d="M 1.339844 0 L 35 0 L 35 37 L 1.339844 37 Z M 1.339844 0 " clip-rule="nonzero"/></clipPath></defs><g clip-path="url(#3595f75fda)"><path fill="#ffffff" d="M 23.421875 10.296875 L 10.9375 22.605469 C 10.578125 22.339844 10.066406 22.367188 9.742188 22.695312 L 9.359375 23.074219 C 9.039062 23.394531 9.003906 23.898438 9.261719 24.257812 L 1.707031 31.707031 C 1.34375 32.066406 1.34375 32.648438 1.707031 33.007812 L 2.683594 33.984375 C 3.042969 34.347656 3.625 34.347656 3.984375 33.984375 L 5.765625 32.183594 C 5.863281 32.101562 5.984375 32.050781 6.128906 32.167969 L 8.207031 34.246094 C 8.386719 34.425781 8.679688 34.425781 8.859375 34.246094 L 9.265625 33.835938 L 10.40625 34.976562 L 10 35.382812 C 9.820312 35.5625 9.742188 35.78125 9.832031 35.871094 L 10.871094 36.90625 C 10.957031 36.996094 11.175781 36.921875 11.355469 36.742188 L 12.742188 35.355469 L 12.035156 34.652344 L 13.28125 33.402344 L 13.988281 34.109375 L 15.375 32.722656 C 15.554688 32.542969 15.628906 32.328125 15.539062 32.238281 L 14.5 31.199219 C 14.414062 31.113281 14.195312 31.1875 14.015625 31.367188 L 13.609375 31.773438 L 12.46875 30.632812 L 12.875 30.226562 C 13.054688 30.046875 13.054688 29.753906 12.875 29.574219 L 10.800781 27.5 C 10.636719 27.332031 10.695312 27.195312 10.785156 27.089844 L 11.433594 26.429688 C 11.792969 26.6875 12.296875 26.652344 12.617188 26.332031 L 12.996094 25.953125 C 13.324219 25.625 13.351562 25.113281 13.085938 24.753906 L 25.464844 12.195312 C 26.03125 11.6875 26.542969 11.671875 26.886719 11.832031 C 29.25 13.199219 31.980469 13.15625 33.621094 11.519531 C 35.671875 9.464844 35.222656 5.683594 32.613281 3.074219 C 30.007812 0.46875 26.226562 0.0195312 24.171875 2.070312 C 22.539062 3.707031 22.492188 6.433594 23.855469 8.792969 C 24.027344 9.152344 24.003906 9.695312 23.421875 10.296875 Z M 25.558594 7.09375 C 24.554688 6.089844 24.554688 4.460938 25.558594 3.457031 C 26.5625 2.453125 28.191406 2.453125 29.195312 3.457031 C 29.632812 3.894531 29.878906 4.449219 29.933594 5.019531 C 29.929688 5.277344 29.71875 5.652344 29.878906 5.8125 C 30.039062 5.972656 30.410156 5.765625 30.667969 5.757812 C 31.242188 5.8125 31.796875 6.058594 32.234375 6.496094 C 33.238281 7.5 33.238281 9.128906 32.234375 10.136719 C 31.230469 11.140625 29.601562 11.140625 28.597656 10.132812 C 28.160156 9.695312 27.910156 9.136719 27.855469 8.5625 C 27.867188 8.304688 28.070312 7.9375 27.914062 7.777344 C 27.753906 7.621094 27.382812 7.828125 27.121094 7.835938 C 26.550781 7.777344 25.996094 7.53125 25.558594 7.09375 Z M 25.558594 7.09375 " fill-opacity="1" fill-rule="nonzero"/></g></svg>