<svg xmlns="http://www.w3.org/2000/svg" xmlns:xlink="http://www.w3.org/1999/xlink" width="50" zoomAndPan="magnify" viewBox="0 0 37.5 37.499999" height="50" preserveAspectRatio="xMidYMid meet" version="1.0"><defs><clipPath id="71b50ee423"><path d="M 8 9.484375 L 37 9.484375 L 37 23 L 8 23 Z M 8 9.484375 " clip-rule="nonzero"/></clipPath><clipPath id="c905fed7b4"><path d="M 0 10 L 36 10 L 36 27.246094 L 0 27.246094 Z M 0 10 " clip-rule="nonzero"/></clipPath></defs><g clip-path="url(#71b50ee423)"><path fill="#ffffff" d="M 36.726562 18.046875 L 34.984375 16.300781 C 30.585938 11.914062 24.867188 9.652344 19.101562 9.503906 C 18.902344 9.492188 18.703125 9.484375 18.503906 9.484375 C 18.304688 9.484375 18.105469 9.492188 17.90625 9.503906 C 14.628906 9.585938 11.367188 10.351562 8.347656 11.808594 L 9.894531 12.515625 L 11.25 13.144531 L 12.441406 13.6875 C 13.761719 12.039062 15.742188 10.933594 17.972656 10.785156 C 18.320312 10.777344 18.664062 10.777344 19.011719 10.785156 C 23.039062 11.050781 26.226562 14.417969 26.226562 18.503906 C 26.226562 18.996094 26.183594 19.476562 26.09375 19.9375 L 27.289062 20.484375 L 31.140625 22.242188 L 32.472656 22.855469 C 33.339844 22.199219 34.171875 21.476562 34.96875 20.691406 L 36.714844 18.945312 C 36.976562 18.703125 36.976562 18.296875 36.726562 18.046875 Z M 36.726562 18.046875 " fill-opacity="1" fill-rule="nonzero"/></g><path fill="#ffffff" d="M 23.605469 18.796875 C 23.613281 18.703125 23.613281 18.597656 23.613281 18.503906 C 23.613281 16.964844 22.929688 15.578125 21.855469 14.644531 C 21.855469 14.644531 21.847656 14.636719 21.847656 14.636719 C 21.808594 14.609375 21.78125 14.578125 21.742188 14.550781 C 21.734375 14.542969 21.730469 14.535156 21.722656 14.527344 C 21.691406 14.503906 21.65625 14.476562 21.625 14.453125 C 21.609375 14.445312 21.601562 14.429688 21.589844 14.425781 C 21.558594 14.402344 21.53125 14.378906 21.5 14.359375 C 21.484375 14.34375 21.472656 14.335938 21.449219 14.320312 C 21.417969 14.296875 21.398438 14.285156 21.367188 14.269531 C 21.34375 14.253906 21.332031 14.238281 21.308594 14.226562 C 21.285156 14.210938 21.265625 14.195312 21.234375 14.179688 C 21.21875 14.171875 21.214844 14.167969 21.199219 14.160156 C 21.191406 14.152344 21.183594 14.152344 21.167969 14.144531 C 21.140625 14.128906 21.109375 14.105469 21.082031 14.09375 C 21.074219 14.085938 21.058594 14.078125 21.050781 14.078125 C 21.027344 14.0625 21 14.046875 20.976562 14.035156 C 20.957031 14.027344 20.941406 14.011719 20.925781 14.003906 C 20.851562 13.96875 20.777344 13.929688 20.703125 13.894531 C 20.558594 13.820312 20.402344 13.753906 20.25 13.703125 C 20.210938 13.6875 20.183594 13.679688 20.144531 13.664062 C 20.042969 13.628906 19.933594 13.597656 19.828125 13.570312 C 19.792969 13.554688 19.746094 13.546875 19.703125 13.539062 C 19.675781 13.53125 19.644531 13.527344 19.613281 13.519531 C 19.585938 13.511719 19.550781 13.503906 19.519531 13.496094 C 19.1875 13.429688 18.84375 13.394531 18.488281 13.394531 C 17.105469 13.394531 15.851562 13.945312 14.9375 14.828125 L 18.023438 16.242188 Z M 23.605469 18.796875 " fill-opacity="1" fill-rule="nonzero"/><g clip-path="url(#c905fed7b4)"><path fill="#ffffff" d="M 1.382812 11.347656 L 5.691406 13.320312 C 4.394531 14.167969 3.164062 15.167969 2.023438 16.300781 L 0.277344 18.046875 C 0.0273438 18.296875 0.0273438 18.703125 0.277344 18.953125 L 2.023438 20.699219 C 6.414062 25.085938 12.140625 27.355469 17.90625 27.5 C 18.105469 27.515625 18.304688 27.523438 18.503906 27.523438 C 18.703125 27.523438 18.902344 27.515625 19.101562 27.5 C 22.882812 27.40625 26.65625 26.398438 30.042969 24.476562 L 35.117188 26.792969 L 35.632812 25.660156 L 1.898438 10.210938 Z M 11.234375 15.851562 L 13.636719 16.949219 C 13.597656 17.066406 13.5625 17.191406 13.53125 17.316406 C 13.53125 17.324219 13.527344 17.332031 13.527344 17.347656 C 13.519531 17.371094 13.519531 17.390625 13.511719 17.414062 C 13.429688 17.765625 13.394531 18.128906 13.394531 18.503906 C 13.394531 19.800781 13.878906 20.992188 14.675781 21.890625 C 14.675781 21.890625 14.679688 21.898438 14.679688 21.898438 C 14.710938 21.925781 14.734375 21.957031 14.761719 21.984375 C 14.769531 21.992188 14.777344 22 14.785156 22.007812 C 14.808594 22.03125 14.828125 22.058594 14.859375 22.082031 C 14.867188 22.089844 14.878906 22.105469 14.886719 22.113281 C 14.910156 22.132812 14.933594 22.15625 14.953125 22.175781 C 14.96875 22.191406 14.984375 22.207031 15 22.214844 C 15.019531 22.238281 15.042969 22.257812 15.066406 22.273438 C 15.078125 22.289062 15.101562 22.304688 15.117188 22.316406 C 15.136719 22.332031 15.152344 22.355469 15.175781 22.371094 C 15.210938 22.398438 15.242188 22.429688 15.277344 22.457031 C 15.277344 22.457031 15.285156 22.464844 15.285156 22.464844 C 15.308594 22.480469 15.320312 22.496094 15.34375 22.515625 C 15.351562 22.523438 15.359375 22.53125 15.367188 22.539062 C 15.386719 22.554688 15.410156 22.574219 15.433594 22.589844 C 15.441406 22.597656 15.453125 22.605469 15.460938 22.613281 C 15.46875 22.621094 15.484375 22.625 15.492188 22.632812 C 15.527344 22.65625 15.558594 22.6875 15.59375 22.707031 C 15.609375 22.714844 15.625 22.730469 15.640625 22.738281 C 15.691406 22.773438 15.742188 22.804688 15.792969 22.839844 C 15.808594 22.847656 15.832031 22.863281 15.84375 22.871094 C 15.882812 22.890625 15.910156 22.914062 15.949219 22.9375 C 16.035156 22.988281 16.125 23.039062 16.21875 23.082031 C 16.257812 23.097656 16.292969 23.121094 16.332031 23.136719 C 16.441406 23.1875 16.558594 23.238281 16.675781 23.28125 C 16.714844 23.296875 16.757812 23.3125 16.796875 23.328125 C 16.816406 23.332031 16.832031 23.339844 16.855469 23.347656 C 17.007812 23.398438 17.171875 23.453125 17.339844 23.488281 C 17.464844 23.519531 17.589844 23.539062 17.714844 23.5625 C 17.746094 23.570312 17.78125 23.570312 17.8125 23.578125 C 17.820312 23.578125 17.824219 23.578125 17.832031 23.578125 C 17.863281 23.578125 17.882812 23.585938 17.914062 23.585938 C 17.914062 23.585938 17.914062 23.585938 17.921875 23.585938 C 17.929688 23.585938 17.929688 23.585938 17.9375 23.585938 C 17.964844 23.589844 18.003906 23.589844 18.03125 23.589844 C 18.054688 23.589844 18.078125 23.597656 18.089844 23.597656 C 18.105469 23.597656 18.121094 23.597656 18.128906 23.597656 C 18.246094 23.605469 18.371094 23.613281 18.488281 23.613281 C 20.328125 23.613281 21.941406 22.640625 22.839844 21.183594 L 25.242188 22.28125 C 23.996094 24.496094 21.683594 26.042969 19.011719 26.21875 C 18.664062 26.226562 18.320312 26.226562 17.972656 26.21875 C 13.945312 25.957031 10.757812 22.589844 10.757812 18.503906 C 10.765625 17.566406 10.925781 16.683594 11.234375 15.851562 Z M 11.234375 15.851562 " fill-opacity="1" fill-rule="nonzero"/></g></svg>