<svg xmlns="http://www.w3.org/2000/svg" xmlns:xlink="http://www.w3.org/1999/xlink" width="1080" zoomAndPan="magnify" viewBox="0 0 810 809.999993" height="1080" preserveAspectRatio="xMidYMid meet" version="1.0"><defs><clipPath id="76ae45ce47"><path d="M 76.492188 76.492188 L 733 76.492188 L 733 733.492188 L 76.492188 733.492188 Z M 76.492188 76.492188 " clip-rule="nonzero"/></clipPath></defs><rect x="-81" width="972" fill="#ffffff" y="-80.999999" height="971.999992" fill-opacity="1"/><rect x="-81" width="972" fill="#000000" y="-80.999999" height="971.999992" fill-opacity="1"/><g clip-path="url(#76ae45ce47)"><path fill="#ffffff" d="M 402.722656 280.058594 C 471.027344 278.777344 527.371094 333.136719 528.65625 401.441406 C 528.65625 402.664062 528.65625 403.832031 528.65625 405.058594 C 529.414062 473.359375 474.703125 529.355469 406.398438 530.113281 C 338.097656 530.871094 282.101562 476.160156 281.34375 407.855469 C 281.34375 406.921875 281.34375 405.992188 281.34375 405.058594 C 280.585938 337.105469 334.769531 281.285156 402.722656 280.058594 Z M 415.964844 76.785156 C 397.53125 76.144531 379.042969 77.078125 360.785156 79.527344 C 354.3125 80.402344 349.003906 84.949219 347.078125 91.132812 L 328.878906 150.394531 C 327.304688 155.410156 323.457031 159.4375 318.496094 161.1875 C 309.921875 164.277344 301.523438 167.71875 293.300781 171.625 C 288.515625 173.960938 282.917969 173.84375 278.25 171.335938 L 223.539062 142.289062 C 217.765625 139.253906 210.765625 139.835938 205.632812 143.804688 C 182.183594 161.59375 161.300781 182.535156 143.453125 205.921875 C 139.488281 211.113281 138.90625 218.054688 141.9375 223.832031 L 171.042969 278.601562 C 173.550781 283.210938 173.785156 288.808594 171.625 293.589844 C 167.660156 301.816406 164.160156 310.214844 161.128906 318.789062 C 159.378906 323.804688 155.351562 327.65625 150.277344 329.171875 L 91.074219 347.429688 C 84.832031 349.296875 80.285156 354.660156 79.46875 361.078125 C 75.5 390.300781 75.5 419.8125 79.46875 449.035156 C 80.285156 455.453125 84.832031 460.820312 91.074219 462.6875 L 150.277344 480.941406 C 155.351562 482.460938 159.378906 486.308594 161.128906 491.324219 C 164.160156 499.898438 167.660156 508.296875 171.625 516.523438 C 173.785156 521.304688 173.550781 526.90625 171.042969 531.511719 L 141.9375 586.285156 C 138.90625 592 139.488281 599 143.453125 604.191406 C 161.300781 627.582031 182.183594 648.460938 205.632812 666.308594 C 210.765625 670.277344 217.765625 670.800781 223.539062 667.828125 L 278.25 638.777344 C 282.917969 636.269531 288.515625 636.15625 293.300781 638.429688 C 301.523438 642.335938 309.921875 645.835938 318.496094 648.871094 C 323.457031 650.621094 327.304688 654.644531 328.878906 659.660156 L 347.078125 718.921875 C 349.003906 725.164062 354.3125 729.714844 360.785156 730.53125 C 389.949219 734.496094 419.523438 734.496094 448.6875 730.53125 C 455.101562 729.714844 460.46875 725.164062 462.394531 718.921875 L 480.59375 659.660156 C 482.167969 654.644531 486.015625 650.621094 490.976562 648.871094 C 499.550781 645.835938 508.007812 642.335938 516.171875 638.429688 C 520.957031 636.15625 526.496094 636.269531 531.164062 638.777344 L 585.933594 667.828125 C 591.707031 670.800781 598.707031 670.277344 603.839844 666.308594 C 627.289062 648.460938 648.171875 627.582031 666.019531 604.191406 C 669.984375 599 670.566406 592 667.535156 586.285156 L 638.488281 531.511719 C 635.921875 526.90625 635.746094 521.304688 637.90625 516.523438 C 641.8125 508.296875 645.3125 499.898438 648.34375 491.324219 C 650.09375 486.308594 654.121094 482.460938 659.195312 480.941406 L 718.457031 462.6875 C 724.640625 460.761719 729.1875 455.453125 730.0625 449.035156 C 733.972656 419.8125 733.972656 390.300781 730.0625 361.078125 C 729.1875 354.660156 724.640625 349.296875 718.457031 347.429688 L 659.195312 329.171875 C 654.121094 327.65625 650.09375 323.804688 648.34375 318.789062 C 645.3125 310.214844 641.8125 301.816406 637.90625 293.589844 C 635.746094 288.808594 635.921875 283.210938 638.488281 278.601562 L 667.535156 223.832031 C 670.566406 218.054688 669.984375 211.113281 666.019531 205.921875 C 648.171875 182.535156 627.289062 161.59375 603.839844 143.804688 C 598.707031 139.835938 591.707031 139.253906 585.933594 142.289062 L 531.164062 171.335938 C 526.496094 173.84375 520.957031 173.960938 516.171875 171.683594 C 508.007812 167.777344 499.550781 164.277344 490.976562 161.246094 C 486.015625 159.496094 482.167969 155.46875 480.59375 150.394531 L 462.394531 91.191406 C 460.46875 84.949219 455.101562 80.402344 448.6875 79.527344 C 437.835938 78.066406 426.929688 77.132812 415.964844 76.785156 " fill-opacity="1" fill-rule="nonzero"/></g></svg>