<svg xmlns="http://www.w3.org/2000/svg" viewBox="0 0 24 24">
  <path d="M19.14 12.936a7.972 7.972 0 0 0 0-1.872l2.037-1.58a0.5 0.5 0 0 0 .121-0.652l-1.928-3.341a0.5 0.5 0 0 0-.607-0.217l-2.396 0.96a7.99 7.99 0 0 0-1.623-0.939l-0.36-2.54a0.5 0.5 0 0 0-.496-0.424h-3.856a0.5 0.5 0 0 0-.496 0.424l-0.36 2.54a7.99 7.99 0 0 0-1.623 0.939l-2.396-0.96a0.5 0.5 0 0 0-.607 0.217l-1.928 3.341a0.5 0.5 0 0 0 .121 0.652l2.037 1.58a7.972 7.972 0 0 0 0 1.872l-2.037 1.58a0.5 0.5 0 0 0-.121 0.652l1.928 3.341a0.5 0.5 0 0 0 .607 0.217l2.396-0.96a7.99 7.99 0 0 0 1.623 0.939l0.36 2.54a0.5 0.5 0 0 0 .496 0.424h3.856a0.5 0.5 0 0 0 .496-0.424l0.36-2.54a7.99 7.99 0 0 0 1.623-0.939l2.396 0.96a0.5 0.5 0 0 0 .607-0.217l1.928-3.341a0.5 0.5 0 0 0-.121-0.652l-2.037-1.58zM12 15.5a3.5 3.5 0 1 1 0-7 3.5 3.5 0 0 1 0 7z"/>
</svg>
