<svg xmlns="http://www.w3.org/2000/svg" xmlns:xlink="http://www.w3.org/1999/xlink" width="1080" zoomAndPan="magnify" viewBox="0 0 810 809.999993" height="1080" preserveAspectRatio="xMidYMid meet" version="1.0"><defs><clipPath id="6f967a1224"><path d="M 0 0 L 809.425781 0 L 809.425781 810 L 0 810 Z M 0 0 " clip-rule="nonzero"/></clipPath></defs><g clip-path="url(#6f967a1224)"><path fill="#ffffff" d="M 402.195312 250.96875 C 486.402344 249.386719 555.867188 316.40625 557.449219 400.613281 C 557.449219 402.125 557.449219 403.5625 557.449219 405.070312 C 558.386719 489.277344 490.933594 558.3125 406.726562 559.246094 C 322.519531 560.183594 253.484375 492.730469 252.550781 408.523438 C 252.550781 407.371094 252.550781 406.222656 252.550781 405.070312 C 251.613281 321.296875 318.417969 252.476562 402.195312 250.96875 Z M 418.519531 0.359375 C 395.796875 -0.429688 373 0.71875 350.492188 3.738281 C 342.507812 4.816406 335.964844 10.425781 333.59375 18.050781 L 311.15625 91.109375 C 309.214844 97.296875 304.46875 102.257812 298.355469 104.414062 C 287.785156 108.226562 277.429688 112.46875 267.292969 117.285156 C 261.394531 120.164062 254.492188 120.019531 248.738281 116.925781 L 181.285156 81.113281 C 174.167969 77.375 165.539062 78.09375 159.210938 82.984375 C 130.300781 104.917969 104.558594 130.734375 82.554688 159.570312 C 77.664062 165.96875 76.945312 174.527344 80.683594 181.644531 L 116.566406 249.171875 C 119.660156 254.851562 119.945312 261.753906 117.285156 267.652344 C 112.394531 277.789062 108.082031 288.144531 104.34375 298.714844 C 102.183594 304.902344 97.222656 309.648438 90.964844 311.515625 L 17.976562 334.023438 C 10.285156 336.324219 4.675781 342.941406 3.667969 350.851562 C -1.222656 386.878906 -1.222656 423.265625 3.667969 459.292969 C 4.675781 467.203125 10.285156 473.816406 17.976562 476.121094 L 90.964844 498.628906 C 97.222656 500.496094 102.183594 505.242188 104.34375 511.425781 C 108.082031 522 112.394531 532.351562 117.285156 542.492188 C 119.945312 548.390625 119.660156 555.292969 116.566406 560.972656 L 80.683594 628.496094 C 76.945312 635.546875 77.664062 644.175781 82.554688 650.574219 C 104.558594 679.410156 130.300781 705.15625 159.210938 727.160156 C 165.539062 732.050781 174.167969 732.695312 181.285156 729.027344 L 248.738281 693.21875 C 254.492188 690.125 261.394531 689.980469 267.292969 692.785156 C 277.429688 697.605469 287.785156 701.917969 298.355469 705.65625 C 304.46875 707.816406 309.214844 712.777344 311.15625 718.960938 L 333.59375 792.023438 C 335.964844 799.714844 342.507812 805.324219 350.492188 806.332031 C 386.445312 811.222656 422.90625 811.222656 458.859375 806.332031 C 466.769531 805.324219 473.386719 799.714844 475.761719 792.023438 L 498.195312 718.960938 C 500.136719 712.777344 504.882812 707.816406 510.996094 705.65625 C 521.566406 701.917969 531.992188 697.605469 542.0625 692.785156 C 547.957031 689.980469 554.789062 690.125 560.542969 693.21875 L 628.066406 729.027344 C 635.183594 732.695312 643.816406 732.050781 650.144531 727.160156 C 679.050781 705.15625 704.792969 679.410156 726.800781 650.574219 C 731.6875 644.175781 732.410156 635.546875 728.667969 628.496094 L 692.859375 560.972656 C 689.695312 555.292969 689.476562 548.390625 692.136719 542.492188 C 696.957031 532.351562 701.269531 522 705.011719 511.425781 C 707.167969 505.242188 712.128906 500.496094 718.386719 498.628906 L 791.445312 476.121094 C 799.070312 473.746094 804.679688 467.203125 805.757812 459.292969 C 810.574219 423.265625 810.574219 386.878906 805.757812 350.851562 C 804.679688 342.941406 799.070312 336.324219 791.445312 334.023438 L 718.386719 311.515625 C 712.128906 309.648438 707.167969 304.902344 705.011719 298.714844 C 701.269531 288.144531 696.957031 277.789062 692.136719 267.652344 C 689.476562 261.753906 689.695312 254.851562 692.859375 249.171875 L 728.667969 181.644531 C 732.410156 174.527344 731.6875 165.96875 726.800781 159.570312 C 704.792969 130.734375 679.050781 104.917969 650.144531 82.984375 C 643.816406 78.09375 635.183594 77.375 628.066406 81.113281 L 560.542969 116.925781 C 554.789062 120.019531 547.957031 120.164062 542.0625 117.359375 C 531.992188 112.539062 521.566406 108.226562 510.996094 104.484375 C 504.882812 102.328125 500.136719 97.367188 498.195312 91.109375 L 475.761719 18.121094 C 473.386719 10.425781 466.769531 4.816406 458.859375 3.738281 C 445.484375 1.941406 432.039062 0.792969 418.519531 0.359375 " fill-opacity="1" fill-rule="nonzero"/></g></svg>