<svg xmlns="http://www.w3.org/2000/svg" xmlns:xlink="http://www.w3.org/1999/xlink" width="500" zoomAndPan="magnify" viewBox="0 0 375 374.999991" height="500" preserveAspectRatio="xMidYMid meet" version="1.0"><defs><clipPath id="2ea3df2671"><path d="M 57.082031 76.644531 L 211 76.644531 L 211 298.527344 L 57.082031 298.527344 Z M 57.082031 76.644531 " clip-rule="nonzero"/></clipPath></defs><path fill="#ffffff" d="M 255.855469 129.117188 C 252.03125 123.90625 244.601562 122.539062 239.113281 126.382812 C 233.902344 130.226562 232.511719 137.636719 236.355469 143.125 C 245.710938 156.023438 250.644531 171.398438 250.644531 187.609375 C 250.644531 203.796875 245.710938 219.171875 236.355469 232.09375 C 232.511719 237.300781 233.625 244.992188 239.113281 248.835938 C 241.3125 250.476562 243.765625 251.035156 245.964844 251.035156 C 249.554688 251.035156 253.398438 249.390625 255.574219 246.078125 C 267.941406 229.058594 274.539062 208.75 274.539062 187.609375 C 274.796875 166.46875 268.21875 146.414062 255.855469 129.117188 " fill-opacity="1" fill-rule="nonzero"/><path fill="#ffffff" d="M 286.328125 97.832031 C 282.207031 92.597656 274.796875 91.789062 269.585938 95.910156 C 264.375 100.007812 263.566406 107.441406 267.664062 112.652344 C 284.960938 134.070312 294.015625 159.867188 294.015625 187.332031 C 294.015625 214.792969 284.960938 240.589844 267.664062 262.011719 C 263.566406 267.21875 264.375 274.652344 269.585938 278.753906 C 271.785156 280.394531 274.519531 281.507812 276.996094 281.507812 C 280.585938 281.507812 283.871094 279.863281 286.328125 277.109375 C 306.660156 251.84375 317.914062 220.003906 317.914062 187.332031 C 317.914062 154.65625 306.660156 123.351562 286.328125 97.832031 " fill-opacity="1" fill-rule="nonzero"/><g clip-path="url(#2ea3df2671)"><path fill="#ffffff" d="M 205.351562 77.5 C 202.316406 76.136719 199.027344 76.414062 196.273438 78.335938 L 113.90625 140.648438 L 65.601562 140.648438 C 60.925781 140.648438 57.082031 144.492188 57.082031 149.167969 L 57.082031 226.046875 C 57.082031 230.703125 60.925781 234.546875 65.601562 234.546875 L 113.90625 234.546875 L 196.550781 296.882812 C 197.941406 297.972656 199.863281 298.527344 201.761719 298.527344 C 203.148438 298.527344 204.238281 298.25 205.605469 297.695312 C 208.636719 296.328125 210.28125 293.316406 210.28125 290.027344 L 210.28125 85.1875 C 210.28125 81.902344 208.359375 78.867188 205.351562 77.5 " fill-opacity="1" fill-rule="nonzero"/></g></svg>