<svg xmlns="http://www.w3.org/2000/svg" xmlns:xlink="http://www.w3.org/1999/xlink" width="500" zoomAndPan="magnify" viewBox="0 0 375 374.999991" height="500" preserveAspectRatio="xMidYMid meet" version="1.0"><defs><clipPath id="85ce7a2674"><path d="M 43.0625 44.503906 L 330 44.503906 L 330 330.253906 L 43.0625 330.253906 Z M 43.0625 44.503906 " clip-rule="nonzero"/></clipPath></defs><g clip-path="url(#85ce7a2674)"><path fill="#ffffff" d="M 329.082031 65.273438 L 308.242188 44.433594 L 42.957031 309.71875 L 63.796875 330.5625 L 133.675781 260.679688 L 200.757812 305.402344 L 200.757812 193.601562 L 226.945312 167.414062 C 234.933594 188.449219 230.574219 213.148438 213.65625 230.070312 L 234.496094 250.914062 C 263.042969 222.363281 267.578125 179.152344 248.855469 145.503906 L 270.320312 124.039062 C 300.070312 169.484375 295.015625 231.214844 255.121094 271.109375 L 275.964844 291.953125 C 327.382812 240.535156 332.425781 160.21875 291.414062 102.941406 Z M 329.082031 65.273438 " fill-opacity="1" fill-rule="nonzero"/></g><path fill="#ffffff" d="M 200.757812 118.625 L 200.757812 69.59375 L 112.328125 128.542969 L 68.117188 128.542969 C 59.976562 128.542969 53.378906 135.144531 53.378906 143.28125 L 53.378906 246.449219 L 72.933594 246.449219 Z M 200.757812 118.625 " fill-opacity="1" fill-rule="nonzero"/></svg>