<svg xmlns="http://www.w3.org/2000/svg" xmlns:xlink="http://www.w3.org/1999/xlink" width="50" zoomAndPan="magnify" viewBox="0 0 37.5 37.499999" height="50" preserveAspectRatio="xMidYMid meet" version="1.0"><path fill="#ffffff" d="M 18.503906 0.34375 C 18.546875 0.34375 18.589844 0.347656 18.628906 0.351562 L 18.636719 0.351562 L 18.6875 0.359375 L 18.75 0.367188 L 18.757812 0.371094 L 18.765625 0.371094 L 18.816406 0.386719 L 18.875 0.398438 L 18.886719 0.402344 L 18.933594 0.421875 L 18.992188 0.4375 L 19.046875 0.464844 L 19.121094 0.5 L 19.15625 0.519531 L 19.21875 0.558594 L 19.226562 0.566406 L 19.253906 0.585938 L 19.320312 0.636719 L 19.328125 0.640625 L 19.351562 0.664062 L 19.421875 0.726562 L 24.609375 5.914062 C 25.113281 6.417969 25.113281 7.242188 24.609375 7.746094 C 24.101562 8.253906 23.28125 8.253906 22.773438 7.746094 L 19.800781 4.773438 L 19.800781 32.234375 L 22.773438 29.257812 C 23.28125 28.753906 24.101562 28.753906 24.609375 29.257812 C 25.113281 29.765625 25.113281 30.585938 24.609375 31.09375 L 19.421875 36.28125 L 19.351562 36.34375 L 19.328125 36.367188 L 19.320312 36.371094 L 19.253906 36.417969 L 19.226562 36.4375 L 19.226562 36.441406 L 19.21875 36.445312 L 19.15625 36.488281 L 19.121094 36.503906 L 19.046875 36.542969 L 19.007812 36.5625 L 18.992188 36.566406 L 18.933594 36.585938 L 18.886719 36.605469 L 18.875 36.609375 L 18.816406 36.621094 L 18.765625 36.632812 L 18.757812 36.636719 L 18.75 36.636719 L 18.6875 36.648438 L 18.636719 36.65625 L 18.628906 36.65625 C 18.589844 36.660156 18.546875 36.660156 18.503906 36.660156 L 18.378906 36.65625 L 18.371094 36.65625 L 18.320312 36.648438 L 18.253906 36.636719 L 18.25 36.636719 L 18.242188 36.632812 L 18.191406 36.621094 L 18.132812 36.609375 L 18.117188 36.605469 L 18.074219 36.585938 L 18.015625 36.566406 L 18 36.5625 L 17.960938 36.542969 L 17.886719 36.503906 L 17.851562 36.488281 L 17.789062 36.445312 L 17.78125 36.441406 L 17.777344 36.4375 L 17.75 36.417969 L 17.683594 36.371094 L 17.675781 36.367188 L 17.65625 36.34375 L 17.585938 36.28125 L 12.398438 31.09375 C 11.890625 30.585938 11.890625 29.765625 12.398438 29.257812 C 12.90625 28.753906 13.726562 28.753906 14.230469 29.257812 L 17.207031 32.234375 L 17.207031 4.773438 L 14.230469 7.746094 C 13.726562 8.253906 12.90625 8.253906 12.398438 7.746094 C 11.890625 7.242188 11.890625 6.417969 12.398438 5.914062 L 17.585938 0.726562 L 17.65625 0.664062 L 17.675781 0.640625 L 17.683594 0.636719 L 17.75 0.585938 L 17.777344 0.566406 L 17.78125 0.566406 L 17.789062 0.558594 L 17.851562 0.519531 L 17.886719 0.5 L 17.960938 0.464844 L 18.015625 0.4375 L 18.074219 0.421875 L 18.117188 0.402344 L 18.132812 0.398438 L 18.191406 0.386719 L 18.242188 0.371094 L 18.25 0.371094 L 18.253906 0.367188 L 18.320312 0.359375 L 18.371094 0.351562 L 18.378906 0.351562 L 18.503906 0.34375 " fill-opacity="1" fill-rule="evenodd"/></svg>